<?xml version="1.0" encoding="UTF-8" standalone="no"?>
<!-- Created with Inkscape (http://www.inkscape.org/) -->

<svg
   xmlns:dc="http://purl.org/dc/elements/1.1/"
   xmlns:cc="http://creativecommons.org/ns#"
   xmlns:rdf="http://www.w3.org/1999/02/22-rdf-syntax-ns#"
   xmlns:svg="http://www.w3.org/2000/svg"
   xmlns="http://www.w3.org/2000/svg"
   xmlns:sodipodi="http://sodipodi.sourceforge.net/DTD/sodipodi-0.dtd"
   xmlns:inkscape="http://www.inkscape.org/namespaces/inkscape"
   width="210mm"
   height="297mm"
   viewBox="0 0 744.09448819 1052.3622047"
   id="svg4830"
   version="1.1"
   inkscape:version="0.91 r13725"
   sodipodi:docname="OpenGuitarChord Em.svg">
  <defs
     id="defs4832" />
  <sodipodi:namedview
     id="base"
     pagecolor="#ffffff"
     bordercolor="#666666"
     borderopacity="1.0"
     inkscape:pageopacity="0.0"
     inkscape:pageshadow="2"
     inkscape:zoom="1.0742794"
     inkscape:cx="389"
     inkscape:cy="696"
     inkscape:document-units="px"
     inkscape:current-layer="layer1"
     showgrid="false"
     inkscape:window-width="1440"
     inkscape:window-height="838"
     inkscape:window-x="-8"
     inkscape:window-y="-8"
     inkscape:window-maximized="1" />
  <metadata
     id="metadata4835">
    <rdf:RDF>
      <cc:Work
         rdf:about="">
        <dc:format>image/svg+xml</dc:format>
        <dc:type
           rdf:resource="http://purl.org/dc/dcmitype/StillImage" />
        <dc:title />
      </cc:Work>
    </rdf:RDF>
  </metadata>
  <g
     inkscape:label="Layer 1"
     inkscape:groupmode="layer"
     id="layer1">
    <text
       xml:space="preserve"
       style="font-style:normal;font-variant:normal;font-weight:normal;font-stretch:normal;font-size:18px;line-height:125%;font-family:Consolas;-inkscape-font-specification:Consolas;text-align:center;letter-spacing:0px;word-spacing:0px;writing-mode:lr-tb;text-anchor:middle;fill:#000000;fill-opacity:1;stroke:none;stroke-width:1px;stroke-linecap:butt;stroke-linejoin:miter;stroke-opacity:1"
       x="262.87738"
       y="211.31586"
       id="text5783"
       sodipodi:linespacing="125%"><tspan
         sodipodi:role="line"
         id="tspan5785"
         x="262.87738"
         y="211.31586" /></text>
    <g
       id="g5192">
      <path
         id="path5855"
         d="m 307.87409,499.47056 -22.10095,-2.87919 -14.90117,16.57398 -4.0913,-21.90897 -20.36751,-9.05022 19.57239,-10.6613 2.31336,-22.16732 16.1877,15.31992 21.79724,-4.64994 -9.56784,20.12953 z"
         inkscape:transform-center-y="0.016625189"
         inkscape:transform-center-x="2.3970069"
         style="opacity:1;fill:#c9c9c9;fill-opacity:1;fill-rule:evenodd;stroke:#000000;stroke-width:0;stroke-linecap:round;stroke-linejoin:miter;stroke-miterlimit:4;stroke-dasharray:none;stroke-opacity:1"
         transform="matrix(0.75239213,0.02817274,-0.02871527,0.73817692,84.444083,100.60505)" />
      <path
         inkscape:connector-curvature="0"
         id="path5644"
         d="M 527.69812,269.42253 C 64.192373,454.90704 64.192373,454.90704 64.192373,454.90704 l 0,0 C 200.56266,589.52028 200.56266,589.52028 200.56266,589.52028 656.40715,396.20942 656.40715,396.20942 656.40715,396.20942 l 0,0 z"
         style="fill:none;fill-rule:evenodd;stroke:#000000;stroke-width:0.96027124px;stroke-linecap:butt;stroke-linejoin:miter;stroke-opacity:1" />
      <path
         inkscape:connector-curvature="0"
         id="path5646"
         d="M 656.74006,396.25489 C 532.45849,270.93564 532.45849,270.93564 532.45849,270.93564 l 0.73977,0"
         style="fill:none;fill-rule:evenodd;stroke:#000000;stroke-width:4.80231619;stroke-linecap:round;stroke-linejoin:miter;stroke-miterlimit:4;stroke-dasharray:none;stroke-opacity:1" />
      <path
         inkscape:connector-curvature="0"
         id="path5648"
         d="M 556.29556,294.81179 C 95.088187,483.42684 95.088187,483.42684 95.088187,483.42684 l 0,-0.78263"
         style="fill:none;fill-rule:evenodd;stroke:#000000;stroke-width:0.96027124px;stroke-linecap:butt;stroke-linejoin:miter;stroke-opacity:1" />
      <path
         inkscape:connector-curvature="0"
         id="path5648-4"
         d="M 580.53476,319.38159 C 119.32739,507.99664 119.32739,507.99664 119.32739,507.99664 l 0,-0.78263"
         style="fill:none;fill-rule:evenodd;stroke:#000000;stroke-width:0.96027124px;stroke-linecap:butt;stroke-linejoin:miter;stroke-opacity:1" />
      <path
         inkscape:connector-curvature="0"
         id="path5648-6"
         d="M 607.60035,345.28106 C 146.39298,533.89611 146.39298,533.89611 146.39298,533.89611 l 0,-0.78263"
         style="fill:none;fill-rule:evenodd;stroke:#000000;stroke-width:0.96027124px;stroke-linecap:butt;stroke-linejoin:miter;stroke-opacity:1" />
      <path
         inkscape:connector-curvature="0"
         id="path5648-43"
         d="M 632.30265,371.67419 C 171.09528,560.28924 171.09528,560.28924 171.09528,560.28924 l 0,-0.78263"
         style="fill:none;fill-rule:evenodd;stroke:#000000;stroke-width:0.96027124px;stroke-linecap:butt;stroke-linejoin:miter;stroke-opacity:1" />
      <path
         sodipodi:nodetypes="ccc"
         inkscape:connector-curvature="0"
         id="path5646-6"
         d="m 530.56057,451.40349 -128.02022,-132.31473 0.74819,0"
         style="fill:none;fill-rule:evenodd;stroke:#000000;stroke-width:2.94941926;stroke-linecap:round;stroke-linejoin:miter;stroke-miterlimit:4;stroke-dasharray:none;stroke-opacity:1" />
      <path
         sodipodi:nodetypes="ccc"
         inkscape:connector-curvature="0"
         id="path5646-6-7"
         d="M 405.90205,505.35771 277.18396,372.36982 274.84564,369.16639"
         style="fill:none;fill-rule:evenodd;stroke:#000000;stroke-width:2.90190077;stroke-linecap:round;stroke-linejoin:miter;stroke-miterlimit:4;stroke-dasharray:none;stroke-opacity:1" />
      <path
         sodipodi:nodetypes="ccc"
         inkscape:connector-curvature="0"
         id="path5646-6-7-1"
         d="M 275.53554,560.09517 146.10505,424.09113 c 0,0 -0.0657,-0.17978 -2.35126,-3.27608"
         style="fill:none;fill-rule:evenodd;stroke:#000000;stroke-width:2.94273329;stroke-linecap:round;stroke-linejoin:miter;stroke-miterlimit:4;stroke-dasharray:none;stroke-opacity:1" />
      <g
         id="g5181">
        <path
           style="opacity:1;fill:#000000;fill-opacity:1;fill-rule:evenodd;stroke:#000000;stroke-width:4.80231619;stroke-linecap:round;stroke-linejoin:miter;stroke-miterlimit:4;stroke-dasharray:none;stroke-opacity:1"
           d="m 384.87008,371.10266 a 17.237818,17.609289 0 0 1 -17.23782,17.60929 17.237818,17.609289 0 0 1 -17.23781,-17.60929 17.237818,17.609289 0 0 1 17.23781,-17.60929 17.237818,17.609289 0 0 1 17.23782,17.60929 z"
           id="path5722-2-2-5" />
        <g
           transform="scale(0.98939616,1.0107175)"
           style="font-style:normal;font-variant:normal;font-weight:bold;font-stretch:normal;font-size:33.60949326px;line-height:125%;font-family:Consolas;-inkscape-font-specification:'Consolas Bold';text-align:center;letter-spacing:0px;word-spacing:0px;writing-mode:lr-tb;text-anchor:middle;fill:#ffffff;fill-opacity:1;stroke:none;stroke-width:1px;stroke-linecap:butt;stroke-linejoin:miter;stroke-opacity:1"
           id="text5795">
          <path
             d="m 364.34338,378.07257 0,-2.95396 5.07097,-5.07096 q 1.42774,-1.42775 2.28111,-2.46163 0.86978,-1.03389 1.32928,-1.83802 0.47592,-0.82055 0.62361,-1.50981 0.1477,-0.68925 0.1477,-1.42774 0,-0.60721 -0.19693,-1.14876 -0.19693,-0.55797 -0.57438,-0.95184 -0.37745,-0.41027 -0.95183,-0.64002 -0.57438,-0.24616 -1.31287,-0.24616 -1.26364,0 -2.34676,0.55797 -1.08312,0.54156 -2.05136,1.46057 l -2.117,-2.72421 q 1.39492,-1.29646 3.13448,-2.06777 1.75596,-0.78773 3.79091,-0.78773 1.57544,0 2.85549,0.41028 1.28005,0.39386 2.18265,1.18158 0.91901,0.78772 1.41134,1.96931 0.50874,1.18158 0.50874,2.7242 0,1.28005 -0.34463,2.39599 -0.34463,1.09953 -1.00107,2.14983 -0.65643,1.0503 -1.62467,2.10059 -0.95184,1.0503 -2.18265,2.21547 l -3.11807,2.97037 9.0424,0 0,3.69245 -14.55646,0 z"
             style=""
             id="path5177" />
        </g>
      </g>
      <g
         id="g5186">
        <path
           style="opacity:1;fill:none;fill-opacity:1;fill-rule:evenodd;stroke:#000000;stroke-width:4.80231619;stroke-linecap:round;stroke-linejoin:miter;stroke-miterlimit:4;stroke-dasharray:none;stroke-opacity:1"
           d="m 375.85769,410.39825 a 17.237818,17.609289 0 0 1 -17.23782,17.60929 17.237818,17.609289 0 0 1 -17.23781,-17.60929 17.237818,17.609289 0 0 1 17.23781,-17.60928 17.237818,17.609289 0 0 1 17.23782,17.60928 z"
           id="path5722-2-7" />
        <path
           style="opacity:1;fill:#000000;fill-opacity:1;fill-rule:evenodd;stroke:#000000;stroke-width:3.87245512;stroke-linecap:round;stroke-linejoin:miter;stroke-miterlimit:4;stroke-dasharray:none;stroke-opacity:1"
           d="m 352.50112,423.80953 c -5.21225,-2.81336 -8.04432,-7.44979 -8.04432,-13.16946 0,-4.73713 1.4644,-8.09618 4.85564,-11.13789 6.3556,-5.70054 14.5212,-5.01091 20.3017,1.7146 2.90498,3.37989 3.47843,5.4537 3.03125,10.96221 -0.41007,5.05149 -3.05116,9.04831 -7.51706,11.37574 -3.61024,1.8815 -9.39714,1.99826 -12.62721,0.2548 z"
           id="path5760"
           inkscape:connector-curvature="0" />
        <g
           transform="scale(0.98939616,1.0107175)"
           style="font-style:normal;font-variant:normal;font-weight:bold;font-stretch:normal;font-size:33.60949326px;line-height:125%;font-family:Consolas;-inkscape-font-specification:'Consolas Bold';text-align:center;letter-spacing:0px;word-spacing:0px;writing-mode:lr-tb;text-anchor:middle;fill:#ffffff;fill-opacity:1;stroke:none;stroke-width:1px;stroke-linecap:butt;stroke-linejoin:miter;stroke-opacity:1"
           id="text5799">
          <path
             d="m 369.69235,410.23944 q 0,1.59186 -0.59079,2.87191 -0.5908,1.26363 -1.82161,2.16623 -1.21441,0.88619 -3.06884,1.36211 -1.85443,0.47591 -4.36529,0.47591 -0.55797,0 -1.18159,-0.0328 -0.6072,-0.0164 -1.2144,-0.0656 -0.60721,-0.0328 -1.18159,-0.0985 -0.57438,-0.0492 -1.03388,-0.13129 l 0,-3.4791 q 1.03388,0.19693 2.31393,0.32821 1.29646,0.11488 2.69139,0.11488 1.3621,0 2.34675,-0.22975 0.98466,-0.22975 1.62468,-0.65644 0.64003,-0.44309 0.93542,-1.08312 0.31181,-0.64002 0.31181,-1.44415 0,-0.70567 -0.31181,-1.28005 -0.3118,-0.57438 -0.95183,-0.96825 -0.64002,-0.41027 -1.64109,-0.62361 -0.98465,-0.22975 -2.34675,-0.22975 l -2.37958,0 0,-3.05243 2.18265,0 q 1.28004,0 2.117,-0.24616 0.85337,-0.26257 1.34569,-0.68926 0.50874,-0.42668 0.72208,-1.00106 0.21334,-0.59079 0.21334,-1.23082 0,-1.31287 -0.85336,-1.98571 -0.85337,-0.68926 -2.64216,-0.68926 -1.28004,0 -2.52727,0.24616 -1.24723,0.24617 -2.57651,0.65644 l 0,-3.36423 q 0.73849,-0.24617 1.41134,-0.41028 0.67284,-0.1641 1.34569,-0.27898 0.67284,-0.11488 1.3621,-0.16411 0.68926,-0.0492 1.42775,-0.0492 1.77237,0 3.10166,0.37745 1.34569,0.37745 2.24829,1.08312 0.91901,0.68925 1.37851,1.69032 0.45951,1.00106 0.45951,2.23188 0,1.95289 -0.9026,3.1673 -0.88619,1.19799 -2.49446,1.83802 1.03389,0.16411 1.87084,0.57438 0.83696,0.39386 1.42775,1.03388 0.6072,0.62362 0.91901,1.44416 0.32822,0.82055 0.32822,1.82161 z"
             style=""
             id="path5173" />
        </g>
      </g>
      <g
         id="text7299"
         style="font-style:normal;font-variant:normal;font-weight:bold;font-stretch:normal;font-size:33.60949326px;line-height:125%;font-family:Consolas;-inkscape-font-specification:'Consolas Bold';text-align:center;letter-spacing:0px;word-spacing:0px;writing-mode:lr-tb;text-anchor:middle;fill:#000000;fill-opacity:1;stroke:none;stroke-width:1px;stroke-linecap:butt;stroke-linejoin:miter;stroke-opacity:1"
         transform="scale(0.98939615,1.0107175)">
        <path
           id="path5170"
           style=""
           d="m 569.17437,258.02892 q 0,2.92113 -0.68926,5.03814 -0.67284,2.117 -1.87084,3.47911 -1.18158,1.3621 -2.78985,2.01853 -1.59185,0.65644 -3.41346,0.65644 -4.23401,0 -6.36743,-2.80626 -2.13341,-2.82267 -2.13341,-8.18903 0,-2.92114 0.67284,-5.03815 0.68926,-2.117 1.87085,-3.4791 1.19799,-1.36211 2.78985,-2.01854 1.60826,-0.65644 3.42987,-0.65644 4.23401,0 6.36742,2.80626 2.13342,2.80627 2.13342,8.18904 z m -4.26683,0.19693 q 0,-3.80733 -1.01748,-5.67817 -1.01747,-1.87084 -3.34782,-1.87084 -1.16517,0 -1.98571,0.49233 -0.82055,0.47591 -1.36211,1.41133 -0.52515,0.93542 -0.77131,2.31394 -0.24616,1.3621 -0.24616,3.13448 0,3.80732 1.01747,5.67816 1.03389,1.87084 3.34782,1.87084 1.16518,0 1.98572,-0.47591 0.83696,-0.49233 1.3621,-1.42775 0.52515,-0.93542 0.77132,-2.29752 0.24616,-1.37852 0.24616,-3.15089 z" />
      </g>
      <g
         id="text7303"
         style="font-style:normal;font-variant:normal;font-weight:bold;font-stretch:normal;font-size:33.60949326px;line-height:125%;font-family:Consolas;-inkscape-font-specification:'Consolas Bold';text-align:center;letter-spacing:0px;word-spacing:0px;writing-mode:lr-tb;text-anchor:middle;fill:#000000;fill-opacity:1;stroke:none;stroke-width:1px;stroke-linecap:butt;stroke-linejoin:miter;stroke-opacity:1"
         transform="scale(0.98939615,1.0107175)">
        <path
           id="path5167"
           style=""
           d="m 668.32403,355.07213 q 0,2.92114 -0.68926,5.03814 -0.67285,2.117 -1.87084,3.47911 -1.18158,1.3621 -2.78985,2.01854 -1.59186,0.65643 -3.41346,0.65643 -4.23401,0 -6.36743,-2.80626 -2.13341,-2.82267 -2.13341,-8.18903 0,-2.92114 0.67284,-5.03814 0.68926,-2.11701 1.87084,-3.47911 1.198,-1.3621 2.78985,-2.01854 1.60827,-0.65643 3.42988,-0.65643 4.23401,0 6.36742,2.80626 2.13342,2.80626 2.13342,8.18903 z m -4.26683,0.19693 q 0,-3.80733 -1.01748,-5.67817 -1.01747,-1.87084 -3.34782,-1.87084 -1.16517,0 -1.98572,0.49233 -0.82054,0.47591 -1.3621,1.41133 -0.52515,0.93542 -0.77131,2.31394 -0.24616,1.3621 -0.24616,3.13448 0,3.80732 1.01747,5.67816 1.03389,1.87085 3.34782,1.87085 1.16517,0 1.98572,-0.47592 0.83695,-0.49233 1.3621,-1.42775 0.52515,-0.93542 0.77131,-2.29752 0.24617,-1.37852 0.24617,-3.15089 z" />
      </g>
      <g
         id="text7303-8"
         style="font-style:normal;font-variant:normal;font-weight:bold;font-stretch:normal;font-size:33.60949326px;line-height:125%;font-family:Consolas;-inkscape-font-specification:'Consolas Bold';text-align:center;letter-spacing:0px;word-spacing:0px;writing-mode:lr-tb;text-anchor:middle;fill:#000000;fill-opacity:1;stroke:none;stroke-width:1px;stroke-linecap:butt;stroke-linejoin:miter;stroke-opacity:1"
         transform="scale(0.98939615,1.0107175)">
        <path
           id="path5164"
           style=""
           d="m 691.97967,381.26076 q 0,2.92114 -0.68926,5.03814 -0.67285,2.117 -1.87084,3.47911 -1.18158,1.3621 -2.78985,2.01854 -1.59186,0.65643 -3.41347,0.65643 -4.234,0 -6.36742,-2.80626 -2.13341,-2.82267 -2.13341,-8.18903 0,-2.92114 0.67284,-5.03814 0.68926,-2.11701 1.87084,-3.47911 1.198,-1.3621 2.78985,-2.01854 1.60827,-0.65644 3.42988,-0.65644 4.23401,0 6.36742,2.80627 2.13342,2.80626 2.13342,8.18903 z m -4.26683,0.19693 q 0,-3.80733 -1.01748,-5.67817 -1.01747,-1.87084 -3.34782,-1.87084 -1.16517,0 -1.98572,0.49233 -0.82054,0.47591 -1.3621,1.41133 -0.52515,0.93542 -0.77131,2.31394 -0.24616,1.3621 -0.24616,3.13448 0,3.80732 1.01747,5.67816 1.03389,1.87084 3.34782,1.87084 1.16517,0 1.98572,-0.47591 0.83695,-0.49233 1.3621,-1.42775 0.52515,-0.93542 0.77131,-2.29752 0.24617,-1.37852 0.24617,-3.15089 z" />
      </g>
      <g
         id="text7423"
         style="font-style:normal;font-variant:normal;font-weight:normal;font-stretch:normal;font-size:35px;line-height:125%;font-family:Consolas;-inkscape-font-specification:Consolas;text-align:start;letter-spacing:0px;word-spacing:0px;writing-mode:lr-tb;text-anchor:start;fill:#000000;fill-opacity:1;stroke:none;stroke-width:1px;stroke-linecap:butt;stroke-linejoin:miter;stroke-opacity:1">
        <path
           id="path5111"
           style=""
           d="m 81.324417,208.78868 q 0,3.00781 -0.717773,5.19531 -0.700684,2.1875 -1.914063,3.62305 -1.196289,1.41846 -2.819824,2.11914 -1.606445,0.68359 -3.400879,0.68359 -2.15332,0 -3.759766,-0.76904 -1.589355,-0.78613 -2.648925,-2.25586 -1.042481,-1.46972 -1.555176,-3.57177 -0.512695,-2.11915 -0.512695,-4.76807 0,-2.97363 0.700683,-5.16113 0.700684,-2.1875 1.896973,-3.60596 1.213379,-1.43555 2.819824,-2.11914 1.606445,-0.70069 3.400879,-0.70069 2.15332,0 3.742676,0.78614 1.606445,0.78613 2.666015,2.25586 1.059571,1.45263 1.572266,3.55468 0.529785,2.10206 0.529785,4.73389 z m -3.161621,0.22217 q 0,-1.96533 -0.307617,-3.58887 -0.290528,-1.64062 -0.957031,-2.81982 -0.666504,-1.1792 -1.726075,-1.82862 -1.04248,-0.64941 -2.529297,-0.64941 -1.435546,0 -2.478027,0.70068 -1.02539,0.6836 -1.691894,1.87989 -0.666504,1.1792 -0.991211,2.78564 -0.324707,1.58936 -0.324707,3.38379 0,1.98242 0.307617,3.62305 0.307617,1.62353 0.957031,2.80273 0.666504,1.16211 1.708984,1.81152 1.042481,0.64942 2.512207,0.64942 1.435547,0 2.478028,-0.68359 1.04248,-0.70069 1.708984,-1.87989 0.683594,-1.19629 1.008301,-2.78564 0.324707,-1.58936 0.324707,-3.40088 z" />
        <path
           id="path5113"
           style=""
           d="m 99.695999,211.21544 q 0,2.29004 -0.649414,3.99902 -0.632324,1.70899 -1.760254,2.83692 -1.12793,1.12793 -2.666015,1.69189 -1.538086,0.56397 -3.33252,0.56397 -0.820312,0 -1.640625,-0.0855 -0.803223,-0.0855 -1.640625,-0.29053 l 0,7.17773 -2.973633,0 0,-24.16504 2.648926,0 0.187988,2.8711 q 1.281739,-1.76026 2.734375,-2.46094 1.452637,-0.71777 3.144532,-0.71777 1.469726,0 2.580566,0.61523 1.11084,0.61524 1.862793,1.74317 0.751953,1.11084 1.12793,2.70019 0.375976,1.57227 0.375976,3.52051 z m -3.041992,0.13672 q 0,-1.3501 -0.205078,-2.47803 -0.187988,-1.12793 -0.615235,-1.93115 -0.427246,-0.80322 -1.09375,-1.24756 -0.666503,-0.46143 -1.589355,-0.46143 -0.563965,0 -1.14502,0.18799 -0.581054,0.1709 -1.213378,0.59815 -0.615235,0.41015 -1.315918,1.11084 -0.683594,0.68359 -1.469727,1.70898 l 0,8.32275 q 0.820313,0.3418 1.726074,0.54688 0.905762,0.18799 1.777344,0.18799 2.409668,0 3.776855,-1.62354 1.367188,-1.64062 1.367188,-4.92187 z" />
        <path
           id="path5115"
           style=""
           d="m 118.80244,210.61729 q 0,0.63233 -0.0171,1.05957 -0.0171,0.42725 -0.0513,0.80323 l -12.04834,0 q 0,2.63183 1.46972,4.05029 1.46973,1.40137 4.23828,1.40137 0.75196,0 1.50391,-0.0513 0.75195,-0.0684 1.45264,-0.1709 0.70068,-0.10254 1.333,-0.22217 0.64942,-0.13672 1.19629,-0.29053 l 0,2.44385 q -1.21338,0.3418 -2.75146,0.54688 -1.521,0.22216 -3.16162,0.22216 -2.20459,0 -3.79395,-0.59814 -1.58935,-0.59814 -2.61474,-1.72607 -1.00831,-1.14502 -1.50391,-2.78565 -0.47852,-1.65771 -0.47852,-3.74267 0,-1.81153 0.5127,-3.41797 0.52978,-1.62354 1.521,-2.83692 1.0083,-1.23047 2.46093,-1.94824 1.45264,-0.71777 3.29834,-0.71777 1.79444,0 3.17871,0.56396 1.38428,0.56397 2.32422,1.60645 0.95703,1.02539 1.43555,2.5122 0.4956,1.46973 0.4956,3.29834 z m -3.09326,-0.42724 q 0.0513,-1.14502 -0.22217,-2.08496 -0.27343,-0.95703 -0.85449,-1.64063 -0.56396,-0.68359 -1.41845,-1.05957 -0.8545,-0.39306 -1.98243,-0.39306 -0.97412,0 -1.77734,0.37597 -0.80322,0.37598 -1.38428,1.05957 -0.58105,0.6836 -0.93994,1.64063 -0.35889,0.95703 -0.44433,2.10205 l 9.02343,0 z" />
        <path
           id="path5117"
           style=""
           d="m 123.5876,202.94395 2.64893,0 0.11963,2.76856 q 0.75195,-0.88867 1.45263,-1.46973 0.70069,-0.59814 1.36719,-0.95703 0.68359,-0.35889 1.38428,-0.4956 0.70068,-0.15381 1.45263,-0.15381 2.64893,0 3.99903,1.57226 1.36718,1.55518 1.36718,4.69971 l 0,11.19385 -2.97363,0 0,-10.95459 q 0,-2.0166 -0.75195,-2.97364 -0.75195,-0.97412 -2.23877,-0.97412 -0.54688,0 -1.07666,0.1709 -0.5127,0.15381 -1.07666,0.56397 -0.56397,0.39306 -1.23047,1.07666 -0.64941,0.68359 -1.46973,1.70898 l 0,11.38184 -2.97363,0 0,-17.15821 z" />
        <path
           id="path5119"
           style=""
           d="m 176.77119,204.60167 q 0,1.36719 -0.51269,2.71728 -0.5127,1.33301 -1.58936,2.39258 -1.07666,1.05957 -2.75146,1.72608 -1.67481,0.64941 -3.99902,0.64941 l -2.76856,0 0,8.01514 -3.04199,0 0,-22.33643 6.28906,0 q 1.65772,0 3.17871,0.37598 1.521,0.35889 2.66602,1.1792 1.16211,0.82031 1.8457,2.11914 0.68359,1.29883 0.68359,3.16162 z m -3.16162,0.13672 q 0,-2.15332 -1.41845,-3.29834 -1.40137,-1.14502 -3.93067,-1.14502 l -3.11035,0 0,9.19433 2.83691,0 q 2.7002,0 4.15284,-1.17919 1.46972,-1.1792 1.46972,-3.57178 z" />
        <path
           id="path5121"
           style=""
           d="m 196.35616,211.38634 q 0,1.99951 -0.56397,3.67431 -0.56396,1.65772 -1.62353,2.85401 -1.05957,1.1792 -2.58057,1.8457 -1.521,0.64941 -3.45215,0.64941 -1.8457,0 -3.31543,-0.56396 -1.45264,-0.58105 -2.47803,-1.69189 -1.0083,-1.11084 -1.55517,-2.75147 -0.52979,-1.64062 -0.52979,-3.77685 0,-1.99952 0.56397,-3.64014 0.56396,-1.65772 1.62353,-2.83692 1.05957,-1.19628 2.58057,-1.8457 1.521,-0.6665 3.45215,-0.6665 1.8457,0 3.29834,0.58105 1.46972,0.56397 2.47802,1.67481 1.0254,1.09375 1.55518,2.73437 0.54688,1.64063 0.54688,3.75977 z m -3.042,0.13672 q 0,-1.58936 -0.35888,-2.76856 -0.3418,-1.19629 -0.99121,-1.98242 -0.64942,-0.80322 -1.58936,-1.19629 -0.92285,-0.41016 -2.06787,-0.41016 -1.33301,0 -2.29004,0.52979 -0.93994,0.51269 -1.55518,1.38428 -0.59814,0.87158 -0.88867,2.03369 -0.27344,1.14502 -0.27344,2.40967 0,1.58935 0.3418,2.78564 0.35889,1.19629 1.0083,1.99951 0.64942,0.78614 1.57227,1.19629 0.92285,0.39307 2.08496,0.39307 1.33301,0 2.27295,-0.5127 0.95703,-0.52978 1.55517,-1.40136 0.61524,-0.87159 0.88868,-2.01661 0.29052,-1.16211 0.29052,-2.44384 z" />
        <path
           id="path5123"
           style=""
           d="m 214.2834,215.41954 q 0,0.90576 -0.30762,1.62354 -0.30761,0.71777 -0.8374,1.28173 -0.52978,0.54688 -1.23047,0.93995 -0.70068,0.39306 -1.5039,0.64941 -0.78614,0.25635 -1.62354,0.37598 -0.8374,0.11962 -1.64062,0.11962 -1.74317,0 -3.21289,-0.1538 -1.45264,-0.15381 -2.85401,-0.49561 l 0,-2.73437 q 1.50391,0.42724 2.99072,0.64941 1.48682,0.22217 2.95655,0.22217 2.13623,0 3.16162,-0.58106 1.02539,-0.58105 1.02539,-1.65771 0,-0.46143 -0.1709,-0.82031 -0.15381,-0.37598 -0.58105,-0.70069 -0.42725,-0.34179 -1.33301,-0.70068 -0.88867,-0.35889 -2.44385,-0.82031 -1.16211,-0.3418 -2.15332,-0.76905 -0.97412,-0.44433 -1.69189,-1.04248 -0.71778,-0.59814 -1.12793,-1.40136 -0.41016,-0.80323 -0.41016,-1.89698 0,-0.71777 0.32471,-1.57226 0.34179,-0.8545 1.14502,-1.58936 0.80322,-0.73486 2.17041,-1.21338 1.36718,-0.4956 3.41797,-0.4956 1.0083,0 2.23877,0.11963 1.23046,0.10254 2.56347,0.37597 l 0,2.64893 q -1.40137,-0.3418 -2.66601,-0.49561 -1.24756,-0.1709 -2.17041,-0.1709 -1.11084,0 -1.87989,0.1709 -0.75195,0.1709 -1.23047,0.47852 -0.46142,0.29053 -0.6665,0.70068 -0.20508,0.39307 -0.20508,0.85449 0,0.46143 0.1709,0.83741 0.18799,0.37597 0.6665,0.73486 0.49561,0.3418 1.36719,0.70068 0.87158,0.3418 2.27295,0.75196 1.521,0.44433 2.56348,0.93994 1.04248,0.47851 1.69189,1.07666 0.64942,0.59814 0.92285,1.3501 0.29053,0.75195 0.29053,1.70898 z" />
        <path
           id="path5125"
           style=""
           d="m 225.81905,205.40489 -5.07569,0 0,-2.46094 8.0835,0 0,14.68018 5.10986,0 0,2.47803 -13.75732,0 0,-2.47803 5.63965,0 0,-12.21924 z m 1.04248,-9.65576 q 0.4956,0 0.92285,0.18799 0.42724,0.1709 0.73486,0.4956 0.32471,0.32471 0.49561,0.75196 0.18799,0.41015 0.18799,0.90576 0,0.47851 -0.18799,0.90576 -0.1709,0.42725 -0.49561,0.75195 -0.30762,0.32471 -0.73486,0.5127 -0.42725,0.1709 -0.92285,0.1709 -0.49561,0 -0.92286,-0.1709 -0.42724,-0.18799 -0.75195,-0.5127 -0.30762,-0.3247 -0.4956,-0.75195 -0.1709,-0.42725 -0.1709,-0.90576 0,-0.49561 0.1709,-0.90576 0.18798,-0.42725 0.4956,-0.75196 0.32471,-0.3247 0.75195,-0.4956 0.42725,-0.18799 0.92286,-0.18799 z" />
        <path
           id="path5127"
           style=""
           d="m 253.07735,219.8629 q -1.0083,0.25635 -2.08496,0.35889 -1.07666,0.11963 -2.1875,0.11963 -3.22998,0 -4.81934,-1.45264 -1.58936,-1.46973 -1.58936,-4.49463 l 0,-8.95508 -4.80224,0 0,-2.49512 4.80224,0 0,-4.71679 2.97364,-0.76905 0,5.48584 7.70752,0 0,2.49512 -7.70752,0 0,8.71582 q 0,1.84571 0.97412,2.76856 0.99121,0.90576 2.90527,0.90576 0.82031,0 1.79444,-0.11963 0.97412,-0.13672 2.03369,-0.41016 l 0,2.56348 z" />
        <path
           id="path5129"
           style=""
           d="m 264.37373,205.40489 -5.07568,0 0,-2.46094 8.0835,0 0,14.68018 5.10986,0 0,2.47803 -13.75732,0 0,-2.47803 5.63964,0 0,-12.21924 z m 1.04248,-9.65576 q 0.49561,0 0.92286,0.18799 0.42724,0.1709 0.73486,0.4956 0.32471,0.32471 0.4956,0.75196 0.18799,0.41015 0.18799,0.90576 0,0.47851 -0.18799,0.90576 -0.17089,0.42725 -0.4956,0.75195 -0.30762,0.32471 -0.73486,0.5127 -0.42725,0.1709 -0.92286,0.1709 -0.4956,0 -0.92285,-0.1709 -0.42724,-0.18799 -0.75195,-0.5127 -0.30762,-0.3247 -0.49561,-0.75195 -0.17089,-0.42725 -0.17089,-0.90576 0,-0.49561 0.17089,-0.90576 0.18799,-0.42725 0.49561,-0.75196 0.32471,-0.3247 0.75195,-0.4956 0.42725,-0.18799 0.92285,-0.18799 z" />
        <path
           id="path5131"
           style=""
           d="m 292.74287,211.38634 q 0,1.99951 -0.56396,3.67431 -0.56397,1.65772 -1.62354,2.85401 -1.05957,1.1792 -2.58056,1.8457 -1.521,0.64941 -3.45215,0.64941 -1.8457,0 -3.31543,-0.56396 -1.45264,-0.58105 -2.47803,-1.69189 -1.0083,-1.11084 -1.55517,-2.75147 -0.52979,-1.64062 -0.52979,-3.77685 0,-1.99952 0.56397,-3.64014 0.56396,-1.65772 1.62353,-2.83692 1.05957,-1.19628 2.58057,-1.8457 1.52099,-0.6665 3.45215,-0.6665 1.8457,0 3.29834,0.58105 1.46972,0.56397 2.47802,1.67481 1.02539,1.09375 1.55518,2.73437 0.54687,1.64063 0.54687,3.75977 z m -3.04199,0.13672 q 0,-1.58936 -0.35888,-2.76856 -0.3418,-1.19629 -0.99122,-1.98242 -0.64941,-0.80322 -1.58935,-1.19629 -0.92285,-0.41016 -2.06787,-0.41016 -1.33301,0 -2.29004,0.52979 -0.93994,0.51269 -1.55518,1.38428 -0.59814,0.87158 -0.88867,2.03369 -0.27344,1.14502 -0.27344,2.40967 0,1.58935 0.3418,2.78564 0.35889,1.19629 1.0083,1.99951 0.64942,0.78614 1.57227,1.19629 0.92285,0.39307 2.08496,0.39307 1.33301,0 2.27295,-0.5127 0.95703,-0.52978 1.55517,-1.40136 0.61524,-0.87159 0.88867,-2.01661 0.29053,-1.16211 0.29053,-2.44384 z" />
        <path
           id="path5133"
           style=""
           d="m 297.08369,202.94395 2.64893,0 0.11963,2.76856 q 0.75195,-0.88867 1.45264,-1.46973 0.70068,-0.59814 1.36718,-0.95703 0.6836,-0.35889 1.38428,-0.4956 0.70068,-0.15381 1.45264,-0.15381 2.64892,0 3.99902,1.57226 1.36719,1.55518 1.36719,4.69971 l 0,11.19385 -2.97363,0 0,-10.95459 q 0,-2.0166 -0.75196,-2.97364 -0.75195,-0.97412 -2.23877,-0.97412 -0.54687,0 -1.07666,0.1709 -0.51269,0.15381 -1.07666,0.56397 -0.56396,0.39306 -1.23047,1.07666 -0.64941,0.68359 -1.46972,1.70898 l 0,11.38184 -2.97364,0 0,-17.15821 z" />
        <path
           id="path5135"
           style=""
           d="m 80.213577,253.27234 q -1.247558,-0.66651 -2.563476,-1.02539 -1.315918,-0.37598 -2.871094,-0.37598 -1.777344,0 -3.161621,0.63233 -1.384277,0.63232 -2.341309,1.79443 -0.939941,1.14502 -1.452636,2.76855 -0.495606,1.62354 -0.495606,3.58887 0,2.05078 0.410156,3.67432 0.410157,1.62353 1.281739,2.75146 0.871582,1.12793 2.221679,1.72608 1.367188,0.59814 3.26416,0.59814 0.324707,0 0.700684,-0.0342 0.375977,-0.0342 0.751953,-0.0854 0.375977,-0.0684 0.717774,-0.15381 0.358886,-0.0854 0.632324,-0.18798 l 0,-7.10938 -4.562988,0 0,-2.51221 7.5708,0 0,11.41602 q -0.700683,0.32471 -1.486816,0.58105 -0.769043,0.25635 -1.589356,0.42725 -0.803222,0.1709 -1.606445,0.25635 -0.803223,0.0854 -1.555176,0.0854 -2.290039,0 -4.135742,-0.71778 -1.828613,-0.71777 -3.127441,-2.11914 -1.281739,-1.41845 -1.982422,-3.52051 -0.683594,-2.10205 -0.683594,-4.8706 0,-2.75147 0.769043,-4.92188 0.769043,-2.1875 2.15332,-3.6914 1.401368,-1.521 3.34961,-2.30713 1.965332,-0.80322 4.32373,-0.80322 1.503907,0 2.854004,0.27343 1.367188,0.25635 2.614746,0.83741 l 0,3.0249 z" />
        <path
           id="path5137"
           style=""
           d="m 98.824417,271.78064 -2.666016,0 -0.102539,-2.76856 q -0.769043,0.88868 -1.469726,1.48682 -0.683594,0.58106 -1.367188,0.93994 -0.683593,0.35889 -1.384277,0.49561 -0.683594,0.15381 -1.452637,0.15381 -2.648925,0 -3.999023,-1.55518 -1.350098,-1.55517 -1.350098,-4.69971 l 0,-11.21093 2.973633,0 0,10.97168 q 0,3.94775 2.973633,3.94775 0.546875,0 1.05957,-0.15381 0.529785,-0.1709 1.09375,-0.56396 0.581055,-0.41016 1.230469,-1.09375 0.666504,-0.6836 1.486816,-1.72608 l 0,-11.38183 2.973633,0 0,17.1582 z" />
        <path
           id="path5139"
           style=""
           d="m 110.15498,257.08337 -5.07568,0 0,-2.46093 8.0835,0 0,14.68017 5.10986,0 0,2.47803 -13.75732,0 0,-2.47803 5.63964,0 0,-12.21924 z m 1.04248,-9.65576 q 0.49561,0 0.92286,0.18799 0.42724,0.1709 0.73486,0.49561 0.32471,0.3247 0.4956,0.75195 0.18799,0.41016 0.18799,0.90576 0,0.47852 -0.18799,0.90576 -0.17089,0.42725 -0.4956,0.75196 -0.30762,0.3247 -0.73486,0.51269 -0.42725,0.1709 -0.92286,0.1709 -0.4956,0 -0.92285,-0.1709 -0.42724,-0.18799 -0.75195,-0.51269 -0.30762,-0.32471 -0.49561,-0.75196 -0.17089,-0.42724 -0.17089,-0.90576 0,-0.4956 0.17089,-0.90576 0.18799,-0.42725 0.49561,-0.75195 0.32471,-0.32471 0.75195,-0.49561 0.42725,-0.18799 0.92285,-0.18799 z" />
        <path
           id="path5141"
           style=""
           d="m 137.41328,271.54138 q -1.0083,0.25635 -2.08496,0.35889 -1.07666,0.11963 -2.1875,0.11963 -3.22998,0 -4.81933,-1.45264 -1.58936,-1.46973 -1.58936,-4.49463 l 0,-8.95508 -4.80224,0 0,-2.49511 4.80224,0 0,-4.7168 2.97363,-0.76904 0,5.48584 7.70752,0 0,2.49511 -7.70752,0 0,8.71582 q 0,1.84571 0.97413,2.76856 0.99121,0.90576 2.90527,0.90576 0.82031,0 1.79443,-0.11963 0.97412,-0.13672 2.03369,-0.41015 l 0,2.56347 z" />
        <path
           id="path5143"
           style=""
           d="m 153.88789,271.78064 -0.0684,-2.30713 q -1.40136,1.38428 -2.854,1.99951 -1.43555,0.61524 -3.0249,0.61524 -1.46973,0 -2.51221,-0.37598 -1.04248,-0.37598 -1.72607,-1.02539 -0.66651,-0.6665 -0.99121,-1.55518 -0.30762,-0.88867 -0.30762,-1.93115 0,-2.58056 1.91406,-4.0332 1.93115,-1.46973 5.69092,-1.46973 l 3.55469,0 0,-1.5039 q 0,-1.521 -0.97412,-2.42676 -0.97413,-0.92285 -2.97364,-0.92285 -1.45263,0 -2.87109,0.3247 -1.40137,0.32471 -2.90527,0.92285 l 0,-2.6831 q 0.56396,-0.20508 1.24755,-0.39307 0.70069,-0.20508 1.46973,-0.35888 0.76904,-0.15381 1.60645,-0.23926 0.8374,-0.10254 1.69189,-0.10254 1.55518,0 2.80273,0.3418 1.24756,0.34179 2.10206,1.04248 0.87158,0.70068 1.333,1.76025 0.46143,1.05957 0.46143,2.49512 l 0,11.82617 -2.66602,0 z m -0.3247,-7.81006 -3.77686,0 q -1.11084,0 -1.91406,0.22217 -0.80322,0.22217 -1.31592,0.63232 -0.51269,0.41016 -0.76904,0.99121 -0.23926,0.56397 -0.23926,1.28174 0,0.49561 0.15381,0.95703 0.15381,0.44434 0.4956,0.80323 0.3418,0.34179 0.88868,0.54687 0.54687,0.20508 1.333,0.20508 1.02539,0 2.34131,-0.61523 1.33301,-0.63233 2.80274,-1.98243 l 0,-3.04199 z" />
        <path
           id="path5145"
           style=""
           d="m 162.84297,254.62244 2.71729,0 0.0855,3.16162 q 1.52099,-1.82862 2.99072,-2.64893 1.48682,-0.82031 2.99072,-0.82031 2.66602,0 4.0332,1.72607 1.38428,1.72608 1.28174,5.12696 l -3.00781,0 q 0.0513,-2.25586 -0.6665,-3.26416 -0.70069,-1.02539 -2.06787,-1.02539 -0.59815,0 -1.21338,0.22216 -0.59815,0.20508 -1.24756,0.6836 -0.63233,0.46142 -1.3501,1.19629 -0.71777,0.73486 -1.53809,1.77734 l 0,11.02295 -3.00781,0 0,-17.1582 z" />
        <path
           id="path5147"
           style=""
           d="m 214.967,270.94324 q -2.68311,1.11084 -5.62256,1.11084 -4.73389,0 -7.28028,-2.81983 -2.52929,-2.83691 -2.52929,-8.37402 0,-2.68311 0.70068,-4.85352 0.70068,-2.17041 1.99951,-3.67431 1.29883,-1.521 3.14453,-2.34131 1.84571,-0.82031 4.13575,-0.82031 1.55517,0 2.88818,0.27343 1.33301,0.25635 2.56348,0.80323 l 0,2.99072 q -1.21338,-0.6665 -2.51221,-1.0083 -1.29883,-0.35889 -2.83692,-0.35889 -1.57226,0 -2.854,0.59815 -1.26465,0.58105 -2.15332,1.70898 -0.88867,1.11084 -1.36719,2.73438 -0.47851,1.60644 -0.47851,3.67431 0,4.34082 1.76025,6.54541 1.76025,2.20459 5.16113,2.20459 1.43555,0 2.75147,-0.32471 1.31592,-0.34179 2.5293,-0.93994 l 0,2.8711 z" />
        <path
           id="path5149"
           style=""
           d="m 233.76582,271.78064 -2.97363,0 0,-10.95459 q 0,-1.98242 -0.75195,-2.95654 -0.73487,-0.99121 -2.11914,-0.99121 -0.59815,0 -1.12793,0.17089 -0.5127,0.15381 -1.07666,0.56397 -0.56397,0.39307 -1.23047,1.07666 -0.66651,0.68359 -1.53809,1.70898 l 0,11.38184 -2.97363,0 0,-24.14795 2.97363,0 0,6.98975 -0.10254,2.70019 q 0.70069,-0.8374 1.36719,-1.40137 0.68359,-0.58105 1.3501,-0.93994 0.68359,-0.35888 1.38428,-0.51269 0.70068,-0.15381 1.45263,-0.15381 2.56348,0 3.96485,1.57226 1.40136,1.55518 1.40136,4.69971 l 0,11.19385 z" />
        <path
           id="path5151"
           style=""
           d="m 254.18819,263.06482 q 0,1.99951 -0.56397,3.67432 -0.56396,1.65771 -1.62353,2.854 -1.05957,1.1792 -2.58057,1.8457 -1.521,0.64942 -3.45215,0.64942 -1.8457,0 -3.31543,-0.56397 -1.45263,-0.58105 -2.47803,-1.69189 -1.0083,-1.11084 -1.55517,-2.75147 -0.52979,-1.64062 -0.52979,-3.77685 0,-1.99951 0.56397,-3.64014 0.56396,-1.65771 1.62353,-2.83691 1.05957,-1.19629 2.58057,-1.84571 1.521,-0.6665 3.45215,-0.6665 1.8457,0 3.29834,0.58105 1.46973,0.56397 2.47803,1.67481 1.02539,1.09375 1.55517,2.73437 0.54688,1.64063 0.54688,3.75977 z m -3.042,0.13672 q 0,-1.58936 -0.35888,-2.76856 -0.3418,-1.19629 -0.99121,-1.98242 -0.64942,-0.80322 -1.58936,-1.19629 -0.92285,-0.41015 -2.06787,-0.41015 -1.33301,0 -2.29004,0.52978 -0.93994,0.5127 -1.55517,1.38428 -0.59815,0.87158 -0.88868,2.03369 -0.27343,1.14502 -0.27343,2.40967 0,1.58935 0.34179,2.78564 0.35889,1.19629 1.0083,1.99951 0.64942,0.78614 1.57227,1.19629 0.92285,0.39307 2.08496,0.39307 1.33301,0 2.27295,-0.5127 0.95703,-0.52978 1.55518,-1.40136 0.61523,-0.87158 0.88867,-2.0166 0.29052,-1.16211 0.29052,-2.44385 z" />
        <path
           id="path5153"
           style=""
           d="m 259.22969,254.62244 2.71729,0 0.0854,3.16162 q 1.521,-1.82862 2.99073,-2.64893 1.48681,-0.82031 2.99072,-0.82031 2.66602,0 4.0332,1.72607 1.38428,1.72608 1.28174,5.12696 l -3.00781,0 q 0.0513,-2.25586 -0.6665,-3.26416 -0.70069,-1.02539 -2.06788,-1.02539 -0.59814,0 -1.21337,0.22216 -0.59815,0.20508 -1.24756,0.6836 -0.63233,0.46142 -1.3501,1.19629 -0.71777,0.73486 -1.53809,1.77734 l 0,11.02295 -3.00781,0 0,-17.1582 z" />
        <path
           id="path5155"
           style=""
           d="m 276.93477,263.56042 q 0,-2.1875 0.59814,-3.87939 0.59815,-1.70898 1.6919,-2.87109 1.11084,-1.1792 2.64892,-1.77735 1.55518,-0.61523 3.45215,-0.61523 0.82031,0 1.60645,0.10254 0.80322,0.10254 1.57226,0.3247 l 0,-7.21191 2.99073,0 0,24.14795 -2.66602,0 -0.10254,-3.24707 q -1.24756,1.81152 -2.70019,2.6831 -1.45264,0.87159 -3.14454,0.87159 -1.46972,0 -2.59765,-0.61524 -1.11084,-0.61523 -1.86279,-1.72607 -0.73487,-1.12793 -1.11084,-2.7002 -0.37598,-1.57226 -0.37598,-3.48633 z m 3.04199,-0.18798 q 0,3.11035 0.90576,4.64843 0.92285,1.521 2.59766,1.521 1.12793,0 2.37549,-1.0083 1.26465,-1.0083 2.64892,-2.99072 l 0,-7.96387 q -0.73486,-0.3418 -1.62353,-0.5127 -0.88867,-0.18798 -1.76026,-0.18798 -2.42675,0 -3.79394,1.57226 -1.3501,1.57227 -1.3501,4.92188 z" />
        <path
           id="path5157"
           style=""
           d="m 303.9709,254.31482 q 0.52979,0 1.0083,0.22217 0.47852,0.20508 0.8374,0.56396 0.35889,0.35889 0.56397,0.8374 0.22217,0.47852 0.22217,1.00831 0,0.54687 -0.22217,1.02539 -0.20508,0.46142 -0.56397,0.82031 -0.35888,0.35889 -0.8374,0.56396 -0.47851,0.20508 -1.0083,0.20508 -0.54687,0 -1.02539,-0.20508 -0.46142,-0.20507 -0.82031,-0.56396 -0.35889,-0.35889 -0.56397,-0.82031 -0.20507,-0.47852 -0.20507,-1.02539 0,-0.52979 0.20507,-1.00831 0.20508,-0.47851 0.56397,-0.8374 0.35889,-0.35888 0.82031,-0.56396 0.47852,-0.22217 1.02539,-0.22217 z m 0,12.52685 q 0.52979,0 1.0083,0.22217 0.47852,0.20508 0.8374,0.56397 0.35889,0.35888 0.56397,0.8374 0.22217,0.47852 0.22217,1.0083 0,0.54688 -0.22217,1.02539 -0.20508,0.46143 -0.56397,0.82031 -0.35888,0.35889 -0.8374,0.56397 -0.47851,0.20508 -1.0083,0.20508 -0.54687,0 -1.02539,-0.20508 -0.46142,-0.20508 -0.82031,-0.56397 -0.35889,-0.35888 -0.56397,-0.82031 -0.20507,-0.47851 -0.20507,-1.02539 0,-0.52978 0.20507,-1.0083 0.20508,-0.47852 0.56397,-0.8374 0.35889,-0.35889 0.82031,-0.56397 0.47852,-0.22217 1.02539,-0.22217 z" />
        <path
           id="path5159"
           style="font-style:normal;font-variant:normal;font-weight:bold;font-stretch:normal;font-size:45px;font-family:Consolas;-inkscape-font-specification:'Consolas Bold'"
           d="m 336.94698,271.78064 0,-28.71826 17.29248,0 0,4.57031 -11.79932,0 0,7.14111 11.25,0 0,4.46045 -11.25,0 0,7.97608 11.79932,0 0,4.57031 -17.29248,0 z" />
        <path
           id="path5161"
           style="font-style:normal;font-variant:normal;font-weight:bold;font-stretch:normal;font-size:45px;font-family:Consolas;-inkscape-font-specification:'Consolas Bold'"
           d="m 376.49776,271.78064 0,-15.20508 q 0,-0.83496 -0.044,-1.45019 -0.0439,-0.63721 -0.17578,-1.05469 -0.13184,-0.41748 -0.39551,-0.61524 -0.2417,-0.21972 -0.68115,-0.21972 -0.68115,0 -1.34033,0.92285 -0.65918,0.92285 -1.49414,3.14209 l 0,14.47998 -4.59229,0 0,-15.20508 q 0,-0.83496 -0.0439,-1.45019 -0.0439,-0.63721 -0.17578,-1.05469 -0.13184,-0.41748 -0.39551,-0.61524 -0.26367,-0.21972 -0.70313,-0.21972 -0.57129,0 -1.27441,0.92285 -0.70313,0.92285 -1.56006,3.14209 l 0,14.47998 -4.63623,0 0,-22.32422 3.97705,0 0.0879,3.25195 q 0.4834,-0.98877 0.9668,-1.69189 0.4834,-0.70313 1.03271,-1.14258 0.54932,-0.46142 1.16455,-0.65918 0.63721,-0.19775 1.42823,-0.19775 1.86767,0 2.83447,0.98877 0.98877,0.96679 1.1206,2.70263 0.52735,-0.98877 1.03272,-1.69189 0.52734,-0.70313 1.07666,-1.14258 0.57129,-0.46142 1.2085,-0.65918 0.65918,-0.19775 1.45019,-0.19775 2.43897,0 3.60352,1.71386 1.16455,1.6919 1.16455,5.03174 l 0,16.01807 -4.63623,0 z" />
      </g>
      <g
         id="text7303-4"
         style="font-style:normal;font-variant:normal;font-weight:bold;font-stretch:normal;font-size:33.60949326px;line-height:125%;font-family:Consolas;-inkscape-font-specification:'Consolas Bold';text-align:center;letter-spacing:0px;word-spacing:0px;writing-mode:lr-tb;text-anchor:middle;fill:#000000;fill-opacity:1;stroke:none;stroke-width:1px;stroke-linecap:butt;stroke-linejoin:miter;stroke-opacity:1"
         transform="scale(0.98939615,1.0107175)">
        <path
           id="path5108"
           style=""
           d="m 644.06695,331.32664 q 0,2.92114 -0.68926,5.03815 -0.67285,2.117 -1.87084,3.4791 -1.18158,1.36211 -2.78985,2.01854 -1.59186,0.65644 -3.41347,0.65644 -4.234,0 -6.36742,-2.80626 -2.13341,-2.82267 -2.13341,-8.18903 0,-2.92114 0.67284,-5.03815 0.68926,-2.117 1.87084,-3.4791 1.198,-1.36211 2.78985,-2.01854 1.60827,-0.65644 3.42988,-0.65644 4.23401,0 6.36742,2.80626 2.13342,2.80626 2.13342,8.18903 z m -4.26683,0.19694 q 0,-3.80733 -1.01748,-5.67817 -1.01747,-1.87084 -3.34782,-1.87084 -1.16517,0 -1.98572,0.49232 -0.82054,0.47592 -1.3621,1.41134 -0.52515,0.93542 -0.77131,2.31394 -0.24616,1.3621 -0.24616,3.13447 0,3.80733 1.01747,5.67817 1.03389,1.87084 3.34782,1.87084 1.16517,0 1.98572,-0.47591 0.83695,-0.49233 1.3621,-1.42775 0.52515,-0.93542 0.77131,-2.29752 0.24617,-1.37852 0.24617,-3.15089 z" />
      </g>
    </g>
  </g>
</svg>
