<?xml version="1.0" standalone="no"?>
<!DOCTYPE svg PUBLIC "-//W3C//DTD SVG 20010904//EN"
 "http://www.w3.org/TR/2001/REC-SVG-20010904/DTD/svg10.dtd">
<svg version="1.0" xmlns="http://www.w3.org/2000/svg"
 width="1280.000000pt" height="640.000000pt" viewBox="0 0 1280.000000 640.000000"
 preserveAspectRatio="xMidYMid meet">
<metadata>
Created by potrace 1.15, written by Peter Selinger 2001-2017
</metadata>
<g transform="translate(0.000000,640.000000) scale(0.100000,-0.100000)"
fill="#000000" stroke="none">
<path d="M2160 5169 c-289 -237 -571 -424 -859 -568 -228 -115 -434 -196 -799
-317 l-204 -67 204 -101 c285 -144 493 -274 696 -436 387 -309 632 -660 634
-906 1 -112 -5 -120 -155 -206 -211 -122 -293 -165 -995 -518 -366 -184 -663
-339 -661 -345 2 -5 49 -24 104 -42 55 -17 199 -63 320 -101 121 -39 450 -143
730 -232 281 -89 549 -174 597 -190 l87 -28 148 61 c81 34 353 164 603 288
250 125 482 239 515 254 519 233 904 172 1455 -230 93 -68 109 -76 140 -71 19
2 163 32 320 66 157 33 344 73 415 88 76 16 118 28 100 30 -227 20 -482 134
-674 301 -272 236 -271 505 2 727 l58 47 347 -7 c612 -12 1615 -31 2972 -56
283 -5 682 -12 885 -15 204 -3 417 -7 475 -10 58 -3 335 -7 615 -11 286 -3
527 -10 550 -16 101 -25 207 -106 281 -214 21 -30 39 -54 40 -54 2 0 37 13 78
29 71 27 76 28 76 10 0 -10 -6 -19 -14 -19 -28 0 -46 -30 -46 -79 0 -26 5 -52
12 -59 7 -7 40 -12 80 -12 78 0 91 12 86 83 -3 36 -7 44 -35 57 -25 11 -33 22
-33 41 0 25 7 30 113 67 200 71 227 75 227 37 0 -17 -5 -25 -18 -25 -30 0 -42
-22 -42 -77 0 -63 13 -73 94 -73 45 0 58 4 70 22 34 48 10 128 -37 128 -13 0
-17 9 -17 36 l0 37 108 -6 c59 -3 131 -13 160 -22 49 -16 52 -18 52 -51 0 -26
-4 -34 -18 -34 -30 0 -42 -22 -42 -77 0 -62 13 -73 87 -73 61 0 82 15 90 62 7
44 -17 88 -47 88 -13 0 -20 7 -20 20 0 11 5 20 10 20 11 0 166 -77 277 -139
l71 -39 156 179 c86 98 153 179 149 179 -5 0 -37 -10 -73 -21 -95 -31 -221
-32 -277 -1 -96 51 -96 149 2 276 l37 49 -21 26 c-62 76 -76 156 -38 212 53
79 151 114 296 106 53 -2 104 -8 115 -12 12 -5 17 -4 15 3 -2 6 -67 87 -143
181 -139 171 -139 171 -160 153 -41 -38 -173 -120 -261 -164 -115 -58 -135
-64 -135 -44 0 9 8 16 19 16 46 0 70 100 33 133 -21 19 -111 23 -143 7 -15 -9
-19 -22 -19 -66 0 -53 2 -56 30 -67 46 -17 41 -53 -8 -67 -78 -20 -146 -30
-218 -30 -67 0 -74 2 -74 20 0 13 7 20 19 20 46 0 70 100 33 133 -22 20 -131
24 -150 5 -7 -7 -12 -36 -12 -66 0 -51 2 -54 30 -65 28 -10 44 -47 21 -47 -29
0 -156 32 -219 56 -70 26 -72 27 -72 61 0 19 4 32 9 29 16 -11 49 29 54 65 8
55 -11 75 -75 81 -69 7 -94 -3 -103 -41 -10 -48 3 -90 31 -97 13 -3 24 -12 24
-20 0 -19 -2 -18 -60 16 -28 17 -52 30 -54 30 -2 0 -40 -45 -85 -100 -93 -114
-190 -199 -270 -237 -71 -33 -200 -42 -446 -31 -99 4 -506 21 -905 38 -399 16
-826 34 -950 40 -124 5 -333 14 -465 20 -291 13 -2054 87 -2286 96 l-166 7
-41 66 c-157 257 -61 439 293 559 157 54 492 111 660 113 33 0 68 3 77 7 14 6
-635 248 -1032 385 l-55 19 -135 -81 c-380 -230 -674 -334 -945 -334 -275 0
-492 83 -883 336 -54 35 -251 169 -437 298 -373 257 -850 571 -866 568 -2 0
-42 -32 -89 -70z"/>
</g>
</svg>
