<?xml version="1.0" standalone="no"?>
<!DOCTYPE svg PUBLIC "-//W3C//DTD SVG 20010904//EN"
 "http://www.w3.org/TR/2001/REC-SVG-20010904/DTD/svg10.dtd">
<svg version="1.0" xmlns="http://www.w3.org/2000/svg"
 width="1280.000000pt" height="914.000000pt" viewBox="0 0 1280.000000 914.000000"
 preserveAspectRatio="xMidYMid meet">
<metadata>
Created by potrace 1.15, written by Peter Selinger 2001-2017
</metadata>
<g transform="translate(0.000000,914.000000) scale(0.100000,-0.100000)"
fill="#000000" stroke="none">
<path d="M12235 9084 c-71 -57 -230 -174 -237 -174 -1 0 -3 30 -3 68 0 111
-20 152 -76 152 -62 0 -169 -83 -169 -130 0 -27 58 -83 114 -109 25 -13 46
-27 46 -31 0 -12 -35 -36 -164 -113 -60 -36 -113 -64 -117 -61 -5 3 -3 15 2
28 15 31 -4 152 -27 177 -22 24 -65 24 -113 0 -45 -24 -101 -84 -101 -111 0
-30 47 -77 105 -106 30 -14 55 -30 55 -34 0 -6 -250 -140 -261 -140 -2 0 -4
26 -5 58 -1 132 -51 166 -161 109 -38 -20 -83 -72 -83 -97 0 -26 50 -82 94
-105 20 -11 36 -22 35 -25 0 -3 -60 -34 -133 -69 l-134 -64 -5 -48 c-7 -58
-46 -140 -90 -191 -22 -26 -242 -163 -712 -446 -602 -362 -942 -564 -1085
-644 -49 -28 -1816 -1052 -1840 -1067 -14 -9 -599 -349 -667 -388 -178 -102
-417 -242 -456 -266 -26 -16 -49 -28 -50 -26 -2 2 -19 38 -39 79 -48 98 -139
210 -296 364 -312 307 -453 380 -762 392 -288 12 -548 -65 -727 -215 -93 -78
-165 -166 -306 -376 -158 -236 -248 -352 -349 -452 l-83 -82 -105 -20 c-223
-43 -282 -46 -820 -43 -634 3 -802 -8 -1065 -72 -541 -132 -945 -446 -1182
-921 -112 -222 -193 -465 -234 -700 -30 -171 -33 -489 -6 -665 39 -254 118
-512 233 -765 44 -97 64 -150 56 -153 -7 -2 -12 -8 -12 -13 0 -6 66 -118 147
-250 132 -216 149 -240 169 -235 19 5 31 -6 75 -67 74 -99 248 -312 353 -429
271 -304 586 -497 929 -568 301 -62 614 -51 1068 40 584 117 1002 408 1336
930 95 149 202 352 338 645 206 440 253 524 344 615 65 65 124 93 272 130 68
17 151 39 184 50 34 10 107 21 170 24 268 14 516 106 652 241 97 97 108 176
35 250 -20 20 -118 101 -217 178 -200 156 -353 304 -402 387 -35 60 -63 153
-63 210 1 128 104 311 235 415 33 26 92 78 130 115 53 51 137 110 339 235 148
92 282 175 297 184 40 23 1377 859 1419 887 165 108 1225 764 1235 764 7 0 15
4 17 10 5 15 1539 971 1549 965 12 -8 87 41 93 62 16 49 165 94 325 98 l113 3
99 71 c55 39 102 71 104 71 3 0 5 -27 5 -60 0 -76 24 -138 56 -146 39 -10 91
5 135 39 53 40 67 78 44 113 -20 30 -99 83 -137 91 -16 3 -28 9 -28 13 0 9
265 190 279 190 7 0 11 -25 11 -65 0 -82 19 -132 55 -141 40 -10 103 13 147
55 48 44 53 79 17 118 -27 28 -109 73 -135 73 -8 0 -14 6 -12 13 6 16 260 177
277 174 9 -1 14 -22 16 -69 4 -78 20 -118 56 -135 58 -28 189 53 189 116 0 17
-10 39 -27 56 -30 30 -113 75 -138 75 -35 0 -7 19 150 105 91 50 172 95 180
100 13 9 12 19 -6 75 -17 50 -22 96 -25 204 -3 133 -5 143 -34 203 -33 66 -64
95 -128 117 -58 21 -111 57 -199 136 -43 38 -80 70 -83 70 -3 0 -36 -25 -75
-56z"/>
</g>
</svg>
